<svg width="512" height="334" viewBox="0 0 512 334" fill="none" xmlns="http://www.w3.org/2000/svg">
<path d="M64.654 1.24397H236.865C245.488 0.219806 254.232 1.16251 262.437 4.00111C270.642 6.83971 278.096 11.5002 284.236 17.6317C290.376 23.7632 295.044 31.2059 297.886 39.3994C300.729 47.5928 301.673 56.3236 300.647 64.9341V122.255H230.487C222.029 122.255 213.918 125.61 207.937 131.582C201.956 137.555 198.596 145.654 198.596 154.1C198.596 162.546 201.956 170.646 207.937 176.618C213.918 182.59 222.029 185.945 230.487 185.945H300.647V243.267C301.673 251.877 300.729 260.608 297.886 268.801C295.044 276.995 290.376 284.437 284.236 290.569C278.096 296.7 270.642 301.361 262.437 304.199C254.232 307.038 245.488 307.981 236.865 306.957H64.654C56.031 307.981 47.2877 307.038 39.0825 304.199C30.8772 301.361 23.4237 296.7 17.2834 290.569C11.1431 284.437 6.47584 276.995 3.63314 268.801C0.790451 260.608 -0.153617 251.877 0.872028 243.267V64.9341C-0.153617 56.3236 0.790451 47.5928 3.63314 39.3994C6.47584 31.2059 11.1431 23.7632 17.2834 17.6317C23.4237 11.5002 30.8772 6.83971 39.0825 4.00111C47.2877 1.16251 56.031 0.219806 64.654 1.24397Z" fill="#0A66C2"/>
<path d="M447.346 1.24397H275.135C266.512 0.219806 257.768 1.16251 249.563 4.00111C241.358 6.83971 233.904 11.5002 227.764 17.6317C221.624 23.7632 216.956 31.2059 214.114 39.3994C211.271 47.5928 210.327 56.3236 211.353 64.9341V122.255H281.513C289.971 122.255 298.082 125.61 304.063 131.582C310.044 137.555 313.404 145.654 313.404 154.1C313.404 162.546 310.044 170.646 304.063 176.618C298.082 182.59 289.971 185.945 281.513 185.945H211.353V243.267C210.327 251.877 211.271 260.608 214.114 268.801C216.956 276.995 221.624 284.437 227.764 290.569C233.904 296.7 241.358 301.361 249.563 304.199C257.768 307.038 266.512 307.981 275.135 306.957H447.346C455.969 307.981 464.712 307.038 472.917 304.199C481.123 301.361 488.576 296.7 494.717 290.569C500.857 284.437 505.524 276.995 508.367 268.801C511.21 260.608 512.154 251.877 511.128 243.267V64.9341C512.154 56.3236 511.21 47.5928 508.367 39.3994C505.524 31.2059 500.857 23.7632 494.717 17.6317C488.576 11.5002 481.123 6.83971 472.917 4.00111C464.712 1.16251 455.969 0.219806 447.346 1.24397Z" fill="#CBD5E1"/>
<path d="M74.2213 287.85V332.433L150.76 287.85H74.2213Z" fill="#0A66C2"/>
</svg>
